<svg width="35" height="35" viewBox="0 0 35 35" fill="none" xmlns="http://www.w3.org/2000/svg">
<path d="M17.5 23.3333C19.1042 23.3333 20.4167 24.6458 20.4167 26.25C20.4167 27.8541 19.1042 29.1666 17.5 29.1666C15.8959 29.1666 14.5834 27.8541 14.5834 26.25C14.5834 24.6458 15.8959 23.3333 17.5 23.3333ZM17.5 14.5833C19.1042 14.5833 20.4167 15.8958 20.4167 17.5C20.4167 19.1041 19.1042 20.4166 17.5 20.4166C15.8959 20.4166 14.5834 19.1041 14.5834 17.5C14.5834 15.8958 15.8959 14.5833 17.5 14.5833ZM17.5 5.83331C19.1042 5.83331 20.4167 7.14581 20.4167 8.74998C20.4167 10.3541 19.1042 11.6666 17.5 11.6666C15.8959 11.6666 14.5834 10.3541 14.5834 8.74998C14.5834 7.14581 15.8959 5.83331 17.5 5.83331ZM8.75004 23.3333C10.3542 23.3333 11.6667 24.6458 11.6667 26.25C11.6667 27.8541 10.3542 29.1666 8.75004 29.1666C7.14587 29.1666 5.83337 27.8541 5.83337 26.25C5.83337 24.6458 7.14587 23.3333 8.75004 23.3333ZM8.75004 14.5833C10.3542 14.5833 11.6667 15.8958 11.6667 17.5C11.6667 19.1041 10.3542 20.4166 8.75004 20.4166C7.14587 20.4166 5.83337 19.1041 5.83337 17.5C5.83337 15.8958 7.14587 14.5833 8.75004 14.5833ZM8.75004 5.83331C10.3542 5.83331 11.6667 7.14581 11.6667 8.74998C11.6667 10.3541 10.3542 11.6666 8.75004 11.6666C7.14587 11.6666 5.83337 10.3541 5.83337 8.74998C5.83337 7.14581 7.14587 5.83331 8.75004 5.83331ZM26.25 23.3333C27.8542 23.3333 29.1667 24.6458 29.1667 26.25C29.1667 27.8541 27.8542 29.1666 26.25 29.1666C24.6459 29.1666 23.3334 27.8541 23.3334 26.25C23.3334 24.6458 24.6459 23.3333 26.25 23.3333ZM26.25 14.5833C27.8542 14.5833 29.1667 15.8958 29.1667 17.5C29.1667 19.1041 27.8542 20.4166 26.25 20.4166C24.6459 20.4166 23.3334 19.1041 23.3334 17.5C23.3334 15.8958 24.6459 14.5833 26.25 14.5833ZM26.25 5.83331C27.8542 5.83331 29.1667 7.14581 29.1667 8.74998C29.1667 10.3541 27.8542 11.6666 26.25 11.6666C24.6459 11.6666 23.3334 10.3541 23.3334 8.74998C23.3334 7.14581 24.6459 5.83331 26.25 5.83331Z" fill="black"/>
</svg>
