<svg width="30" height="30" viewBox="0 0 30 30" fill="none" xmlns="http://www.w3.org/2000/svg">
<path d="M26.25 15C26.25 8.78906 21.2109 3.75 15 3.75C8.78906 3.75 3.75 8.78906 3.75 15C3.75 21.2109 8.78906 26.25 15 26.25C21.2109 26.25 26.25 21.2109 26.25 15Z" stroke="black" stroke-width="2" stroke-miterlimit="10"/>
<path d="M20.5471 8.8435L13.6799 11.5904C13.2083 11.779 12.7798 12.0615 12.4207 12.4206C12.0615 12.7798 11.779 13.2082 11.5904 13.6798L8.84355 20.547C8.80946 20.6322 8.80111 20.7255 8.81955 20.8154C8.83799 20.9053 8.8824 20.9878 8.94728 21.0527C9.01216 21.1176 9.09466 21.162 9.18454 21.1804C9.27443 21.1988 9.36774 21.1905 9.45293 21.1564L16.3201 18.4095C16.7918 18.2209 17.2202 17.9385 17.5793 17.5793C17.9385 17.2201 18.221 16.7917 18.4096 16.3201L21.1564 9.45288C21.1905 9.3677 21.1989 9.27438 21.1805 9.18449C21.162 9.09461 21.1176 9.01211 21.0527 8.94723C20.9878 8.88235 20.9053 8.83794 20.8155 8.8195C20.7256 8.80106 20.6323 8.80941 20.5471 8.8435ZM15 16.4062C14.7219 16.4062 14.45 16.3237 14.2187 16.1692C13.9875 16.0147 13.8072 15.7951 13.7008 15.5381C13.5944 15.2811 13.5665 14.9984 13.6208 14.7256C13.675 14.4528 13.809 14.2022 14.0056 14.0056C14.2023 13.8089 14.4529 13.675 14.7257 13.6207C14.9984 13.5665 15.2812 13.5943 15.5381 13.7007C15.7951 13.8072 16.0147 13.9874 16.1693 14.2187C16.3238 14.4499 16.4063 14.7218 16.4063 15C16.4063 15.3729 16.2581 15.7306 15.9944 15.9943C15.7306 16.258 15.373 16.4062 15 16.4062Z" fill="black"/>
</svg>
