<svg width="30" height="30" viewBox="0 0 30 30" fill="none" xmlns="http://www.w3.org/2000/svg">
<path d="M26.6667 24.1667H3.33333C3.11232 24.1667 2.90036 24.0789 2.74408 23.9226C2.5878 23.7663 2.5 23.5543 2.5 23.3333C2.5 23.1123 2.5878 22.9004 2.74408 22.7441C2.90036 22.5878 3.11232 22.5 3.33333 22.5H26.6667C26.8877 22.5 27.0996 22.5878 27.2559 22.7441C27.4122 22.9004 27.5 23.1123 27.5 23.3333C27.5 23.5543 27.4122 23.7663 27.2559 23.9226C27.0996 24.0789 26.8877 24.1667 26.6667 24.1667Z" fill="black"/>
<path d="M26.6667 15.8334H3.33333C3.11232 15.8334 2.90036 15.7456 2.74408 15.5893C2.5878 15.433 2.5 15.221 2.5 15C2.5 14.779 2.5878 14.567 2.74408 14.4108C2.90036 14.2545 3.11232 14.1667 3.33333 14.1667H26.6667C26.8877 14.1667 27.0996 14.2545 27.2559 14.4108C27.4122 14.567 27.5 14.779 27.5 15C27.5 15.221 27.4122 15.433 27.2559 15.5893C27.0996 15.7456 26.8877 15.8334 26.6667 15.8334Z" fill="black"/>
<path d="M26.6667 7.49998H3.33333C3.11232 7.49998 2.90036 7.41218 2.74408 7.2559C2.5878 7.09962 2.5 6.88766 2.5 6.66665C2.5 6.44563 2.5878 6.23367 2.74408 6.07739C2.90036 5.92111 3.11232 5.83331 3.33333 5.83331H26.6667C26.8877 5.83331 27.0996 5.92111 27.2559 6.07739C27.4122 6.23367 27.5 6.44563 27.5 6.66665C27.5 6.88766 27.4122 7.09962 27.2559 7.2559C27.0996 7.41218 26.8877 7.49998 26.6667 7.49998Z" fill="black"/>
</svg>
