<svg width="30" height="30" viewBox="0 0 30 30" fill="none" xmlns="http://www.w3.org/2000/svg">
<g clip-path="url(#clip0_43_42)">
<path d="M15.0001 28.5667C15.525 28.5546 16.0288 28.3572 16.4222 28.0095C16.8157 27.6618 17.0735 27.1862 17.1501 26.6667H12.7667C12.8455 27.2003 13.1153 27.6871 13.5261 28.0366C13.937 28.3861 14.4607 28.5745 15.0001 28.5667Z" fill="black"/>
<path d="M27.0916 23.1917C26.288 22.4753 25.5845 21.6541 25 20.75C24.3618 19.5021 23.9793 18.1394 23.875 16.7417V12.625C23.8716 12.125 23.827 11.6261 23.7416 11.1334C23.0857 11.0022 22.4553 10.7659 21.875 10.4334C22.0962 11.1457 22.2086 11.8874 22.2083 12.6334V16.75C22.3104 18.455 22.7795 20.1179 23.5833 21.625C24.1586 22.5367 24.8413 23.376 25.6166 24.125H4.27496C5.0503 23.376 5.73296 22.5367 6.30829 21.625C7.11214 20.1179 7.58115 18.455 7.68329 16.75V12.625C7.67891 11.6606 7.8648 10.7048 8.23033 9.81229C8.59586 8.9198 9.13384 8.10819 9.81347 7.42391C10.4931 6.73963 11.301 6.19613 12.191 5.82453C13.081 5.45293 14.0355 5.26054 15 5.25835C16.4114 5.25948 17.7912 5.6769 18.9666 6.45835C18.837 5.98251 18.7643 5.49299 18.75 5.00002V4.47502C17.8798 4.04699 16.9451 3.76543 15.9833 3.64169V2.59169C15.9833 2.29663 15.8661 2.01367 15.6574 1.80503C15.4488 1.5964 15.1658 1.47919 14.8708 1.47919C14.5757 1.47919 14.2928 1.5964 14.0841 1.80503C13.8755 2.01367 13.7583 2.29663 13.7583 2.59169V3.68335C11.6047 3.98715 9.63377 5.05981 8.20931 6.7033C6.78485 8.34679 6.00307 10.4501 6.00829 12.625V16.7417C5.90392 18.1394 5.52144 19.5021 4.88329 20.75C4.30903 21.652 3.61679 22.4731 2.82496 23.1917C2.73607 23.2698 2.66483 23.3659 2.61597 23.4737C2.56712 23.5814 2.54178 23.6984 2.54163 23.8167V24.95C2.54163 25.171 2.62942 25.383 2.7857 25.5393C2.94198 25.6956 3.15395 25.7834 3.37496 25.7834H26.5416C26.7626 25.7834 26.9746 25.6956 27.1309 25.5393C27.2872 25.383 27.375 25.171 27.375 24.95V23.8167C27.3748 23.6984 27.3495 23.5814 27.3006 23.4737C27.2518 23.3659 27.1805 23.2698 27.0916 23.1917Z" fill="black"/>
<path d="M22.9166 14.1667C26.8286 14.1667 29.9999 10.9954 29.9999 7.08333C29.9999 3.17132 26.8286 0 22.9166 0C19.0046 0 15.8333 3.17132 15.8333 7.08333C15.8333 10.9954 19.0046 14.1667 22.9166 14.1667Z" fill="#FF0000"/>
</g>
<defs>
<clipPath id="clip0_43_42">
<rect width="30" height="30" fill="white"/>
</clipPath>
</defs>
</svg>
