<svg width="35" height="35" viewBox="0 0 35 35" fill="none" xmlns="http://www.w3.org/2000/svg">
<path d="M19.6875 16.4062H15.3125V12.0312H13.125V16.4062H8.75V18.5938H13.125V22.9688H15.3125V18.5938H19.6875V16.4062Z" fill="black"/>
<path d="M22.9688 28.4375H4.375C3.79502 28.4369 3.23895 28.2063 2.82884 27.7962C2.41873 27.386 2.18808 26.83 2.1875 26.25V8.75C2.18808 8.17002 2.41873 7.61395 2.82884 7.20384C3.23895 6.79373 3.79502 6.56308 4.375 6.5625H22.9688C23.5487 6.56308 24.1048 6.79373 24.5149 7.20384C24.925 7.61395 25.1557 8.17002 25.1562 8.75V13.1873L31.0833 8.95453C31.2468 8.83784 31.4392 8.76841 31.6395 8.75386C31.8399 8.73931 32.0403 8.78021 32.2189 8.87206C32.3976 8.96391 32.5474 9.10317 32.6521 9.27457C32.7568 9.44598 32.8123 9.6429 32.8125 9.84375V25.1562C32.8125 25.3572 32.7572 25.5543 32.6526 25.7258C32.5479 25.8974 32.3981 26.0368 32.2194 26.1288C32.0408 26.2208 31.8402 26.2618 31.6398 26.2473C31.4394 26.2327 31.2468 26.1633 31.0833 26.0466L25.1562 21.8138V26.25C25.1557 26.83 24.925 27.386 24.5149 27.7962C24.1048 28.2063 23.5487 28.4369 22.9688 28.4375ZM4.375 8.75V26.2511L22.9688 26.25V19.6875C22.9687 19.4866 23.0241 19.2895 23.1287 19.1179C23.2333 18.9464 23.3832 18.8069 23.5618 18.715C23.7405 18.623 23.941 18.582 24.1414 18.5965C24.3419 18.611 24.5344 18.6804 24.698 18.7972L30.625 23.03V11.97L24.698 16.2028C24.5344 16.3196 24.3419 16.389 24.1414 16.4035C23.941 16.418 23.7405 16.377 23.5618 16.285C23.3832 16.1931 23.2333 16.0536 23.1287 15.8821C23.0241 15.7105 22.9687 15.5134 22.9688 15.3125V8.75H4.375Z" fill="black"/>
</svg>
