<svg width="94" height="21" viewBox="0 0 94 21" fill="none" xmlns="http://www.w3.org/2000/svg">
<g clip-path="url(#clip0_43_21)">
<path d="M29.3549 3.24595C29.1827 2.61852 28.8468 2.04651 28.3807 1.58691C27.9145 1.1273 27.3344 0.796134 26.6981 0.626379C24.3685 0 14.9935 0 14.9935 0C14.9935 0 5.61805 0.0190086 3.2888 0.645388C2.65252 0.815171 2.07245 1.14635 1.60635 1.60596C1.14025 2.06556 0.804383 2.63755 0.6322 3.26496C-0.0724329 7.34638 -0.345804 13.5651 0.651477 17.483C0.82366 18.1105 1.15952 18.6824 1.62563 19.142C2.09173 19.6016 2.6718 19.9328 3.30808 20.1026C5.63752 20.729 15.0127 20.729 15.0127 20.729C15.0127 20.729 24.3879 20.729 26.7174 20.1026C27.3537 19.9328 27.9337 19.6016 28.3998 19.142C28.8659 18.6824 29.2018 18.1105 29.374 17.483C30.117 13.396 30.3461 7.18109 29.3547 3.24613L29.3549 3.24595Z" fill="#FF0000"/>
<path d="M12.0094 14.8065L19.7868 10.3646L12.0094 5.92255V14.8065Z" fill="white"/>
<path d="M90.188 6.01759C91.2083 6.01759 91.9783 6.20731 92.5173 6.56793C93.0563 6.92873 93.4415 7.49809 93.6725 8.27653C93.9034 9.0548 93.9996 10.1177 93.9996 11.4845V13.7056H89.0521V14.3888L89.1293 16.2681C89.1869 16.6858 89.2833 16.9895 89.4371 17.1793C89.5914 17.3692 89.8414 17.464 90.1688 17.464C90.6116 17.464 90.9197 17.2933 91.0735 16.9517C91.2468 16.6099 91.3237 16.0404 91.343 15.2621L93.9034 15.414C93.9227 15.5279 93.9227 15.6798 93.9227 15.8695C93.9227 17.0654 93.5954 17.9577 92.9216 18.5461C92.2478 19.1344 91.3237 19.4382 90.1109 19.4382C88.6479 19.4382 87.6276 18.9827 87.0501 18.0906C86.4727 17.1983 86.1646 15.7934 86.1646 13.9143V11.6173C86.2299 8.3904 86.8055 6.027 90.188 6.01759ZM54.5929 6.26434V15.7746C54.5929 16.3442 54.6505 16.7618 54.7853 17.0085C55.0587 17.5363 55.7672 17.4014 56.1521 17.1414C56.3744 16.9933 56.5536 16.7905 56.6719 16.5531V6.26415H59.6173V19.2293H57.3071L57.0569 17.6347H56.9992C56.364 18.8307 55.4205 19.438 54.1693 19.438C52.2434 19.4333 51.7722 18.0651 51.66 16.6754L51.6526 16.5775C51.6388 16.367 51.6306 16.1562 51.6282 15.9453V6.26434H54.5927H54.5929ZM69.782 6.26434V15.7746C69.782 16.3442 69.8396 16.7618 69.9744 17.0085C70.2479 17.5363 70.9562 17.4014 71.3412 17.1414C71.5635 16.9933 71.7426 16.7905 71.861 16.5531V6.26415H74.8064V19.2293H72.4962L72.246 17.6347H72.1883C71.5531 18.8307 70.6096 19.438 69.3584 19.438C67.4325 19.4333 66.9612 18.0651 66.8491 16.6754L66.8417 16.5775C66.8279 16.367 66.8197 16.1562 66.8173 15.9453V6.26434H69.782ZM46.0453 6.01759C47.0079 6.01759 47.7972 6.20731 48.3748 6.60595C48.9522 7.00459 49.395 7.61214 49.6645 8.44725C49.934 9.28254 50.0688 10.4024 50.0688 11.7882V13.6674C50.0688 15.0532 49.934 16.1542 49.6645 16.9894C49.395 17.8248 48.9714 18.4322 48.3748 18.8308C47.7781 19.2105 46.9693 19.4192 45.9684 19.4192C44.9287 19.4382 44.1201 19.2295 43.5235 18.8499C42.9268 18.4512 42.5031 17.8437 42.253 17.0085C42.0026 16.1733 41.8871 15.0722 41.8871 13.6866V11.8071C41.8871 10.4212 42.0219 9.28236 42.3106 8.44707C42.5994 7.59295 43.0421 6.9854 43.6582 6.60595C44.2742 6.22614 45.0635 6.0174 46.0453 6.0174V6.01759ZM79.4267 0.816284V7.64997H79.446C79.7155 7.15647 80.0619 6.75784 80.5433 6.45406C80.9928 6.15603 81.5224 5.9974 82.064 5.99858C82.7764 5.99858 83.3154 6.1883 83.7197 6.54892C84.1239 6.92873 84.4127 7.51709 84.5859 8.33338C84.7538 9.12414 84.8493 10.2178 84.8552 11.5969L84.8554 11.7314V13.7814C84.8554 15.6986 84.6051 17.1224 84.143 18.0336C83.662 18.9447 82.9304 19.4004 81.9293 19.4004C81.3711 19.4004 80.8705 19.2675 80.4086 19.0207C80 18.786 79.6612 18.4493 79.4263 18.0446L79.3881 17.9765H79.3305L79.0224 19.2105H76.5775V0.816465H79.4267V0.816284ZM67.6449 1.48068V3.83431H64.7188V19.2293H61.8312V3.83449H58.8859V1.48086H67.6451L67.6449 1.48068ZM35.8999 1.48068L35.9018 1.48792C35.9299 1.61121 36.3191 3.31746 36.7472 5.3054L36.781 5.4629L36.832 5.70096L36.8662 5.86081L36.8833 5.94101L36.9174 6.10177L36.9345 6.18233L36.9684 6.34363L37.018 6.57952C37.3072 7.9561 37.5831 9.33667 37.7482 10.3266H37.8253C37.9833 9.43859 38.213 8.30224 38.4579 7.14199L38.5222 6.83894C38.5545 6.68723 38.5868 6.53552 38.6195 6.38418L38.6698 6.14938C39.0024 4.61182 39.3449 3.07638 39.6974 1.54314L39.7029 1.5187L39.7117 1.48068H42.6571L39.2496 13.4588V19.2105H36.3428V13.4777H36.3235L32.9545 1.4805H35.8999V1.48068ZM45.9875 8.0296C45.5832 8.0296 45.3137 8.23852 45.1406 8.67517C44.9672 9.11164 44.8903 9.77604 44.8903 10.7064V14.7496C44.8903 15.6988 44.9672 16.401 45.1213 16.8188C45.2753 17.2363 45.5641 17.4452 45.9875 17.4452C46.3918 17.4452 46.6805 17.2363 46.8539 16.8188C47.0272 16.401 47.1041 15.6988 47.1041 14.7496V10.7062C47.1041 9.77604 47.027 9.09264 46.8539 8.67499C46.6805 8.23852 46.3918 8.0296 45.9875 8.0296ZM79.9464 8.40941C79.7118 8.62303 79.5449 8.88644 79.4456 9.21574L79.4267 9.28254V16.6477C79.6654 17.0464 80.0043 17.3121 80.601 17.3312C80.909 17.3312 81.1591 17.2173 81.3519 16.9895C81.5443 16.7618 81.679 16.382 81.7559 15.8505C81.8299 15.3403 81.8685 14.6375 81.8714 13.7425V11.9401C81.8714 10.9151 81.8329 10.1368 81.7752 9.58632C81.6981 9.03579 81.6021 8.63715 81.4288 8.40941C81.0937 7.93474 80.37 7.94053 79.9464 8.40941ZM90.1304 7.97276C89.803 7.99177 89.5719 8.08663 89.4371 8.25752C89.2833 8.44725 89.1869 8.73202 89.1293 9.14966C89.0725 9.5588 89.0531 10.989 89.0521 11.0462V11.9781H91.2083V11.1562V11.172C91.207 11.4593 91.2009 11.0053 91.1877 10.4479L91.1859 10.3729C91.1737 9.88303 91.1561 9.33685 91.1313 9.14966C91.0735 8.71301 90.9771 8.40923 90.8233 8.23852C90.6692 8.06762 90.4383 7.97276 90.1302 7.97276H90.1304Z" fill="#282828"/>
</g>
<defs>
<clipPath id="clip0_43_21">
<rect width="94" height="21" fill="white"/>
</clipPath>
</defs>
</svg>
