<svg width="41" height="41" viewBox="0 0 41 41" fill="none" xmlns="http://www.w3.org/2000/svg">
<path fill-rule="evenodd" clip-rule="evenodd" d="M5.07018e-07 3.42535C5.07018e-07 2.5169 0.360885 1.64564 1.00326 1.00327C1.64564 0.360889 2.51689 4.56647e-06 3.42535 4.56647e-06H37.5708C38.021 -0.000730731 38.4669 0.0873396 38.883 0.259173C39.2991 0.431007 39.6773 0.683229 39.9958 1.0014C40.3143 1.31957 40.567 1.69744 40.7392 2.11338C40.9115 2.52931 41.0001 2.97515 40.9998 3.42535V37.5708C41.0003 38.0211 40.912 38.467 40.74 38.8832C40.5679 39.2993 40.3156 39.6774 39.9972 39.9959C39.6789 40.3144 39.3009 40.567 38.8849 40.7393C38.4688 40.9115 38.0229 41.0001 37.5726 40.9998H3.42535C2.97537 40.9998 2.5298 40.9112 2.1141 40.7389C1.69839 40.5667 1.3207 40.3142 1.0026 39.9959C0.684506 39.6776 0.432235 39.2998 0.260205 38.884C0.0881744 38.4682 -0.000244314 38.0226 5.07018e-07 37.5726V3.42535ZM16.2285 15.6321H21.7802V18.4201C22.5816 16.8174 24.6316 15.3749 27.7122 15.3749C33.618 15.3749 35.0176 18.5673 35.0176 24.4247V35.2748H29.0409V25.7591C29.0409 22.4232 28.2396 20.5409 26.2045 20.5409C23.3811 20.5409 22.207 22.5704 22.207 25.7591V35.2748H16.2285V15.6321ZM5.97852 35.0195H11.957V15.3749H5.97852V35.0176V35.0195ZM12.8124 8.96779C12.8237 9.47967 12.7326 9.98866 12.5445 10.4649C12.3564 10.9411 12.0751 11.3749 11.7171 11.7409C11.359 12.1069 10.9315 12.3977 10.4595 12.5963C9.98758 12.7948 9.48073 12.8971 8.96871 12.8971C8.4567 12.8971 7.94985 12.7948 7.4779 12.5963C7.00594 12.3977 6.5784 12.1069 6.22036 11.7409C5.86232 11.3749 5.581 10.9411 5.3929 10.4649C5.20479 9.98866 5.11371 9.47967 5.12498 8.96779C5.14711 7.96302 5.56179 7.00686 6.28022 6.30408C6.99865 5.60129 7.9637 5.20776 8.96871 5.20776C9.97372 5.20776 10.9388 5.60129 11.6572 6.30408C12.3756 7.00686 12.7903 7.96302 12.8124 8.96779Z" fill="white"/>
</svg>
