<svg width="45" height="37" viewBox="0 0 45 37" fill="none" xmlns="http://www.w3.org/2000/svg">
<path d="M45 4.33931C43.3451 5.07259 41.5674 5.56806 39.6985 5.792C41.6269 4.63815 43.0695 2.82213 43.7574 0.682785C41.9456 1.75891 39.9628 2.51639 37.895 2.92228C36.5045 1.4376 34.6627 0.453536 32.6557 0.12286C30.6486 -0.207817 28.5884 0.133398 26.7951 1.09353C25.0018 2.05366 23.5757 3.57899 22.7381 5.4327C21.9005 7.28641 21.6984 9.36479 22.1631 11.3452C18.4921 11.1608 14.9008 10.2067 11.6224 8.54461C8.34404 6.88254 5.45177 4.5497 3.13331 1.69749C2.34057 3.06497 1.88474 4.65046 1.88474 6.339C1.88386 7.85907 2.25819 9.35586 2.97452 10.6966C3.69086 12.0373 4.72704 13.1804 5.99114 14.0246C4.52512 13.978 3.09144 13.5818 1.80943 12.8692V12.9881C1.80928 15.1201 2.54675 17.1864 3.89669 18.8366C5.24663 20.4867 7.1259 21.6189 9.21562 22.0412C7.85564 22.4093 6.4298 22.4635 5.0458 22.1998C5.6354 24.0342 6.78388 25.6383 8.33046 26.7876C9.87704 27.9369 11.7443 28.5738 13.6708 28.6091C10.4004 31.1764 6.36153 32.569 2.20382 32.5629C1.46733 32.5631 0.731455 32.5201 0 32.4341C4.22031 35.1476 9.13306 36.5877 14.1504 36.5821C31.1349 36.5821 40.4199 22.5149 40.4199 10.3146C40.4199 9.91822 40.41 9.51789 40.3922 9.12152C42.1982 7.81543 43.7572 6.19808 44.996 4.34525L45 4.33931Z" fill="white"/>
</svg>
